<?xml version="1.0" standalone="no"?>
<!DOCTYPE svg PUBLIC "-//W3C//DTD SVG 1.1//EN" "http://www.w3.org/Graphics/SVG/1.1/DTD/svg11.dtd" >
<svg xmlns="http://www.w3.org/2000/svg" xmlns:xlink="http://www.w3.org/1999/xlink" version="1.1">
<metadata>
Created by FontForge 20170731 at Fri May 18 10:33:50 2018
 By Aleksey,,,
Copyright (c) 2018 Unbranded Studio. All rights reserved.
</metadata>
<defs>
<font id="Grover-Bold" horiz-adv-x="619" >
  <font-face 
    font-family="Grover Bold"
    font-weight="400"
    font-stretch="normal"
    units-per-em="1000"
    panose-1="0 0 7 0 0 0 0 0 0 0"
    ascent="776"
    descent="-224"
    x-height="507"
    cap-height="725"
    bbox="-86 -237 1044 817"
    underline-thickness="50"
    underline-position="-150"
    unicode-range="U+0020-007D"
  />
<missing-glyph horiz-adv-x="711" 
 />
    <glyph glyph-name=".notdef" horiz-adv-x="711" 
 />
    <glyph glyph-name=".null" horiz-adv-x="0" 
 />
    <glyph glyph-name="nonmarkingreturn" horiz-adv-x="333" 
 />
    <glyph glyph-name="space" unicode=" " horiz-adv-x="264" 
 />
    <glyph glyph-name="exclam" unicode="!" horiz-adv-x="285" 
d="M125 190q-16 0 -28 12t-12 28l-8 495l144 3l-19 -499v1q0 -16 -12 -28t-28 -12h-37zM88 101q22 22 55 22t55 -22t22 -55t-22 -55t-55 -22t-55 22t-22 55t22 55z" />
    <glyph glyph-name="quotedbl" unicode="&#x22;" horiz-adv-x="359" 
d="M35 685q0 16 12 28t28 12h34q16 0 28 -12t12 -28v-193l-114 -55v248zM205 685q0 16 12 28t28 12h34q16 0 28 -12t12 -28v-193l-114 -55v248z" />
    <glyph glyph-name="numbersign" unicode="#" horiz-adv-x="728" 
d="M265 164l-23 -189h-111l23 189h-153l26 111h145l16 149h-146l26 111h138l24 190h111l-23 -190h145l23 190h111l-23 -190h153l-26 -111h-145l-16 -149h146l-26 -111h-139l-23 -189h-111l23 189h-145zM444 424h-145l-15 -149h145z" />
    <glyph glyph-name="dollar" unicode="$" horiz-adv-x="627" 
d="M239 -117v83q-64 5 -121.5 26.5t-99.5 57.5v157q45 -57 118.5 -91t152.5 -34q76 0 123.5 31t48.5 81q1 1 1 9q0 32 -41.5 51.5t-116.5 40.5q-96 29 -142.5 50t-78.5 53q-24 26 -37.5 60.5t-13.5 70.5q0 80 55 133.5t152 67.5v69h124v-69q104 -14 179 -64v-141
q-43 40 -113 65.5t-137 25.5q-66 0 -101.5 -25t-33.5 -69q-1 -1 -1 -8q0 -37 68 -63h1q24 -10 89 -28q93 -26 139 -46t78 -51h-1q30 -27 44 -56.5t14 -64.5q0 -16 -1 -19q-6 -54 -23.5 -91t-49.5 -63q-60 -51 -151 -64v-86z" />
    <glyph glyph-name="percent" unicode="%" horiz-adv-x="826" 
d="M674 725l-401 -750h-120l401 750h120zM311.5 711.5q45.5 -25.5 71.5 -71.5q26 -47 26 -100q0 -52 -25 -96t-69 -69q-43 -25 -97 -25t-98.5 26t-70.5 71q-26 47 -26 101q0 52 24.5 95.5t68.5 68.5q43 25 96 25q54 0 99.5 -25.5zM276 608q-23 24 -59 24q-37 0 -61 -25.5
t-24 -65.5q0 -38 22.5 -62t58.5 -24q38 0 62 25.5t24 65.5q0 38 -23 62zM711 330q44 -25 69 -68q24 -43 24 -96q0 -54 -26 -100t-72 -72q-47 -26 -100 -26t-96.5 25t-67.5 69t-24 96q0 54 25.5 99.5t71.5 71.5q44 26 99 26q53 0 97 -25zM669.5 224q-24.5 26 -61.5 26
q-36 0 -58.5 -24t-22.5 -62q0 -40 23.5 -65.5t61.5 -25.5q36 0 59 24.5t23 62.5t-24.5 64z" />
    <glyph glyph-name="ampersand" unicode="&#x26;" horiz-adv-x="713" 
d="M654 263q-17 -76 -56 -135l157 -153h-168l-67 65q-95 -77 -221 -77q-82 0 -144.5 30.5t-97.5 86.5t-35 129q0 66 31 120t88 88q-47 65 -47 124q0 10 5 32q13 48 33 78.5t52 50.5v0q56 35 120 35q19 0 40 -3q119 -18 189 -97l-22 -139q-96 123 -201 123q-77 0 -89 -72v1
l-2 -15q0 -27 22 -52q14 -16 20 -24q5 -7 32 -34l216 -210q26 53 30 80zM450 121l-228 223q-38 -14 -62 -51.5t-24 -83.5q0 -64 45.5 -102.5t121.5 -38.5q82 0 147 53z" />
    <glyph glyph-name="quotesingle" unicode="'" horiz-adv-x="174" 
d="M141 720v-233l-114 -55v288h114z" />
    <glyph glyph-name="parenleft" unicode="(" horiz-adv-x="362" 
d="M195 -237q-87 94 -129 216t-42 280q0 278 164 466h145q-189 -198 -189 -467q0 -153 47.5 -273t148.5 -222h-145z" />
    <glyph glyph-name="parenright" unicode=")" horiz-adv-x="362" 
d="M29 -237q101 102 148.5 222t47.5 273q0 269 -189 467h145q164 -188 164 -466q0 -158 -42 -280t-129 -216h-145z" />
    <glyph glyph-name="asterisk" unicode="*" horiz-adv-x="426" 
d="M254 429l16 -113h-107l-9 124l-89 -70l-54 91l103 71l-106 42l54 94l111 -56l-16 113h107l9 -124l89 72l54 -94l-104 -70l108 -43l-55 -92z" />
    <glyph glyph-name="plus" unicode="+" 
d="M364 264v-205h-115v205h-207v117h207v206h115v-206h207v-117h-207z" />
    <glyph glyph-name="comma" unicode="," horiz-adv-x="236" 
d="M215 128l-94 -249l-122 -17l77 267z" />
    <glyph glyph-name="hyphen" unicode="-" horiz-adv-x="481" 
d="M406 330v-117h-331v117h331z" />
    <glyph glyph-name="period" unicode="." horiz-adv-x="236" 
d="M118 122q34 0 57 -22t23 -55q0 -32 -23.5 -54.5t-56.5 -22.5q-34 0 -57 22t-23 54q0 30 21 54q23 24 59 24z" />
    <glyph glyph-name="slash" unicode="/" horiz-adv-x="511" 
d="M531 817l-426 -982h-130l426 982h130z" />
    <glyph glyph-name="zero" unicode="0" horiz-adv-x="708" 
d="M80 554q38 88 108 135q71 48 166 48q94 0 165 -47.5t109 -136.5q37 -84 37 -203q0 -117 -37.5 -204.5t-107.5 -134.5q-71 -48 -166 -48q-96 0 -167 47t-108 135q-37 84 -37 205q0 116 38 204zM519 493q-23 61 -66 94q-40 31 -99 31q-89 0 -138.5 -70t-49.5 -198
q0 -129 49 -198.5t139 -69.5t139 69.5t49 198.5q0 82 -23 143z" />
    <glyph glyph-name="one" unicode="1" horiz-adv-x="373" 
d="M291 725v-750h-123v615l-159 -30v121l189 44h93z" />
    <glyph glyph-name="two" unicode="2" horiz-adv-x="575" 
d="M19 65l244 233l28 26q56 56 69 71q39 46 39 98q0 27 -11.5 51t-33.5 41q-43 33 -107 33q-128 0 -220 -137l-7 161q93 95 231 95q57 0 106.5 -16t83.5 -45q81 -69 81 -176q0 -98 -64 -168q-25 -30 -81 -83l-20 -19l-143 -138h332v-117h-527v90z" />
    <glyph glyph-name="three" unicode="3" horiz-adv-x="571" 
d="M216 -39q-53 0 -97 12t-91 39l-3 141q52 -40 96.5 -57t98.5 -17q56 0 99 19t67 52t24 76q0 63 -41.5 96.5t-120.5 33.5q-68 0 -85 -27l-28 8v96l188 175h-278v117h466v-91l-187 -175q75 -16 123 -53.5t69 -83.5q18 -40 18 -96q0 -71 -36 -129.5t-102 -94.5
q-63 -35 -146 -40q-5 -1 -34 -1z" />
    <glyph glyph-name="four" unicode="4" horiz-adv-x="633" 
d="M514 171l-1 -196h-122l1 196h-376l-1 93l383 464h108l7 -440h112v-117h-111zM391 288v249l-211 -249h211z" />
    <glyph glyph-name="five" unicode="5" horiz-adv-x="597" 
d="M31 35l10 134q94 -85 225 -85q70 0 119 34q29 21 43 46.5t14 57.5q0 36 -23 66t-65 49t-95 19q-88 0 -202 -46l58 415l393 3v-117l-293 -3l-20 -145q35 6 81 6q118 0 199 -69q46 -38 70.5 -91t20.5 -103q-6 -69 -46 -124t-105 -86t-144 -31q-146 0 -240 70z" />
    <glyph glyph-name="six" unicode="6" horiz-adv-x="641" 
d="M427 121.5q42 39.5 42 101.5q0 66 -43 99q-39 36 -101 36q-54 0 -99 -33t-63 -85q2 -71 44.5 -114.5t110.5 -43.5q67 0 109 39.5zM563 517q-103 100 -205 100q-53 0 -95.5 -28.5t-70.5 -82.5q-19 -40 -27 -89q34 27 80.5 41.5t100.5 14.5q101 0 169 -67q77 -71 77 -181
t-73 -183q-72 -78 -194 -78q-66 0 -120 23t-92 68q-35 43 -53 104.5t-22 151.5q-5 118 35.5 216.5t117.5 154.5q73 55 165 55q105 0 200 -73z" />
    <glyph glyph-name="seven" unicode="7" horiz-adv-x="553" 
d="M527 640l-297 -665h-132l282 633h-362l-8 117h512z" />
    <glyph glyph-name="eight" unicode="8" horiz-adv-x="645" 
d="M583 310q30 -49 30 -109q0 -55 -22.5 -102t-63.5 -76q-84 -60 -205 -60q-122 0 -205 60q-41 29 -63.5 76t-22.5 102q0 61 30 110.5t81 73.5q-76 55 -76 144q0 59 33.5 106.5t92.5 74.5t130 27q72 0 131 -27t93 -74q33 -48 33 -107q0 -91 -78 -144q52 -26 82 -75zM193 491
q7 -12 29 -28q41 -29 100 -29q63 0 100 24t37 65q0 44 -38.5 72.5t-98.5 28.5q-59 0 -97.5 -28.5t-38.5 -72.5q0 -20 7 -32zM444 112q22 17 34 41.5t12 51.5q0 51 -46.5 83.5t-121.5 32.5q-73 0 -120 -33t-47 -83q0 -28 12 -52.5t33 -40.5q48 -36 122 -36q73 0 122 36z" />
    <glyph glyph-name="nine" unicode="9" horiz-adv-x="641" 
d="M203 580.5q-42 -39.5 -42 -101.5q0 -66 43 -99q39 -36 101 -36q54 0 99 33t63 85q-2 71 -44.5 114.5t-110.5 43.5q-67 0 -109 -39.5zM67 185q103 -100 205 -100q52 0 95 29t71 83q20 39 27 88q-34 -27 -80.5 -41.5t-100.5 -14.5q-101 0 -169 67q-77 71 -77 181t73 183
q72 78 194 78q66 0 120 -23t92 -68q35 -43 53 -104.5t22 -151.5q5 -118 -35 -216t-117 -154t-166 -56q-105 0 -200 73z" />
    <glyph glyph-name="colon" unicode=":" horiz-adv-x="236" 
d="M89.5 476.5q14.5 5.5 28.5 5.5q30 0 50 -19t20 -48q0 -27 -18 -47q-9 -9 -23.5 -14.5t-28.5 -5.5q-30 0 -50 19t-20 48q0 28 18 47q9 9 23.5 14.5zM118 122q34 0 57 -22t23 -55q0 -32 -23.5 -54.5t-56.5 -22.5q-34 0 -57 22t-23 54q0 30 21 54q23 24 59 24z" />
    <glyph glyph-name="semicolon" unicode=";" horiz-adv-x="242" 
d="M201 118l-87 -230l-101 -14l71 245zM132 482q34 0 57 -22t23 -55q0 -32 -23.5 -54.5t-56.5 -22.5q-34 0 -57 22t-23 54q0 30 21 54q23 24 59 24z" />
    <glyph glyph-name="less" unicode="&#x3c;" 
d="M218 323l326 -150v-128l-489 228v100l489 229v-128z" />
    <glyph glyph-name="equal" unicode="=" 
d="M564 467v-96h-509v96h509zM574 289v-116h-529v116h529z" />
    <glyph glyph-name="greater" unicode="&#x3e;" 
d="M544 373v-100l-489 -228v128l326 150l-326 151v128z" />
    <glyph glyph-name="question" unicode="?" horiz-adv-x="476" 
d="M148 381q73 9 137 55q26 19 41.5 41.5t15.5 42.5q0 45 -30.5 71.5t-80.5 26.5q-110 0 -217 -113l4 140q42 39 89.5 60.5t104.5 27.5q4 1 29 1q63 0 114.5 -26t81.5 -73q29 -47 29 -104q0 -39 -20.5 -81.5t-52.5 -70.5q-54 -48 -126 -75l3 -114h-120zM214 122q34 0 57 -22
t23 -55q0 -32 -23.5 -54.5t-56.5 -22.5q-34 0 -57 22t-23 54q0 30 21 54q23 24 59 24z" />
    <glyph glyph-name="at" unicode="@" horiz-adv-x="962" 
d="M106 496q58 101 158 160q98 58 218 58q119 0 218.5 -54.5t157.5 -150.5q57 -95 57 -210q0 -74 -25 -132.5t-70 -91.5t-102 -33q-61 0 -89 22q-23 18 -29 28l-5 7q-33 -26 -76 -41.5t-84 -15.5q-57 0 -103.5 27.5t-72.5 76.5t-26 109q0 72 33 131.5t90 94.5q56 34 126 34
q57 0 121 -54l83 8l-2 -78l-2 -130q0 -50 4 -70q4 -21 14 -29t32 -8q14 0 24.5 7t23.5 25q26 44 26 114q0 84 -41 154t-115 111t-168 41q-139 0 -232 -97q-93 -93 -93 -234q0 -92 43 -168t117 -119.5t165 -43.5q131 0 230 84v-129q-100 -63 -230 -63q-119 0 -219 58.5
t-157 159.5q-58 100 -58 221q0 120 58 221zM384 185v1q28 -30 74 -30q31 0 65 16.5t53 41.5l14 125q-16 31 -42 47.5t-57 16.5q-56 0 -96 -40q-40 -43 -40 -100q0 -46 29 -78z" />
    <glyph glyph-name="A" unicode="A" horiz-adv-x="753" 
d="M207 168l-77 -193h-132l321 754h102l348 -754h-133l-90 193h-339zM499 282l-127 268l-118 -268h245z" />
    <glyph glyph-name="B" unicode="B" horiz-adv-x="726" 
d="M74 737h328q103 0 164.5 -53t61.5 -142q0 -41 -14.5 -75t-40.5 -57q55 -25 85 -75.5t30 -118.5q0 -65 -34 -121t-93 -88t-128 -32h-359v762zM420 92q38 0 69.5 17t51.5 49v-1q18 33 18 68q0 54 -35.5 82t-103.5 28h-222v-243h222zM390 440q64 0 94.5 22t30.5 67
q0 50 -32 75.5t-93 25.5h-202v-190h202z" />
    <glyph glyph-name="C" unicode="C" horiz-adv-x="690" 
d="M139 61.5q-96 102.5 -94 288.5q-1 122 41.5 209.5t125.5 134.5q82 46 197 46q150 0 241 -71l-3 -137q-110 89 -232 89q-123 0 -185.5 -69t-59.5 -202v0q-3 -135 59 -203.5t187 -68.5q152 0 245 112l4 -148q-98 -83 -254 -83q-176 0 -272 102.5z" />
    <glyph glyph-name="D" unicode="D" horiz-adv-x="778" 
d="M74 725h254q126 0 217 -44.5t139 -128.5t48 -202q0 -182 -104 -278.5t-300 -96.5h-254v750zM319 92q150 0 219 62t69 196q0 130 -71 194t-217 64h-121v-516h121z" />
    <glyph glyph-name="E" unicode="E" horiz-adv-x="640" 
d="M619 92v-117h-545v750h530v-117h-406v-184h257v-117h-257v-215h421z" />
    <glyph glyph-name="F" unicode="F" horiz-adv-x="622" 
d="M198 308v-333h-124v750h527v-117h-403v-183h257v-117h-257z" />
    <glyph glyph-name="G" unicode="G" horiz-adv-x="780" 
d="M224.5 10q-86.5 47 -133.5 135q-46 85 -46 205q0 121 45.5 208t132.5 133q85 46 206 46q146 0 247 -80v-142q-106 103 -243 103q-130 0 -196.5 -68t-66.5 -201q0 -128 66.5 -197.5t190.5 -69.5q66 0 105 13t69 45v256h123v-304q-48 -63 -124.5 -96t-172.5 -33
q-116 0 -202.5 47z" />
    <glyph glyph-name="H" unicode="H" horiz-adv-x="761" 
d="M198 308v-333h-124v750h124v-300h366v300h124v-750h-124v333h-366z" />
    <glyph glyph-name="I" unicode="I" horiz-adv-x="281" 
d="M200 725l3 -750h-124l-3 750h124z" />
    <glyph glyph-name="J" unicode="J" horiz-adv-x="507" 
d="M14 24l1 156q64 -96 171 -97q62 -1 87 8t38 36q14 31 14 97l4 503l124 1l-4 -518q-1 -184 -110 -226q-52 -20 -125 -20q-128 0 -200 60z" />
    <glyph glyph-name="K" unicode="K" horiz-adv-x="661" 
d="M74 -25v750h124v-329l267 329h163l-342 -412l423 -338h-183l-328 259v-259h-124z" />
    <glyph glyph-name="L" unicode="L" horiz-adv-x="597" 
d="M592 94v-117h-515v750h124v-633h391z" />
    <glyph glyph-name="M" unicode="M" horiz-adv-x="848" 
d="M193 502l4 -527h-123v750h111l240 -359l240 359h110v-750h-123l3 528l-194 -296h-71z" />
    <glyph glyph-name="N" unicode="N" horiz-adv-x="775" 
d="M197 501l-8 -526h-122l12 750h101l395 -525l13 525h122l-18 -750h-101z" />
    <glyph glyph-name="O" unicode="O" horiz-adv-x="845" 
d="M621 689.5q86 -47.5 132 -135.5t46 -204t-46 -204.5t-131 -135.5q-86 -47 -200 -47t-199.5 47t-131.5 135t-46 205t46 205t132 135t199 47t199 -47.5zM607.5 152.5q66.5 70.5 66.5 197.5t-66.5 197.5t-185.5 70.5t-185.5 -70.5t-66.5 -197.5t66.5 -197.5t185.5 -70.5
t185.5 70.5z" />
    <glyph glyph-name="P" unicode="P" horiz-adv-x="665" 
d="M74 725h309q123 0 188 -56.5t65 -162.5q0 -108 -65 -165t-188 -57h-185v-309h-124v750zM378 401q74 0 104.5 23.5t30.5 79.5q0 57 -30 80.5t-105 23.5h-180v-207h180z" />
    <glyph glyph-name="Q" unicode="Q" horiz-adv-x="845" 
d="M98 547.5q43 84.5 125 131.5q84 48 199 48q113 0 197.5 -48t127.5 -136q42 -85 42 -193q0 -118 -48.5 -206.5t-137.5 -132.5q43 -31 84 -31q56 0 100 38l-4 -112q-50 -25 -108 -25q-34 0 -75.5 17.5t-71.5 44.5l1 -1q-17 13 -39 35q-31 -4 -68 -4q-115 0 -199 47.5
t-126 135.5q-42 85 -42 194q0 113 43 197.5zM189.5 203.5q29.5 -61.5 87.5 -95.5q58 -36 145 -36q84 0 143.5 34t89.5 99q29 66 29 145q0 84 -29.5 146t-86.5 96q-60 36 -146 36q-84 0 -143.5 -34t-88.5 -99q-30 -63 -30 -145q0 -85 29.5 -146.5z" />
    <glyph glyph-name="R" unicode="R" horiz-adv-x="736" 
d="M74 725h338q127 0 186.5 -52t59.5 -163q0 -71 -43 -125.5t-117 -77.5l262 -332h-151l-247 315h-164v-315h-124v750zM408 407q126 0 126 100q0 44 -8 62t-31 28h1q-31 11 -88 11h-210v-201h210z" />
    <glyph glyph-name="S" unicode="S" horiz-adv-x="628" 
d="M19 212q20 -38 64.5 -68.5t100.5 -45.5q54 -16 108 -16q78 0 123.5 31.5t45.5 87.5q0 48 -90 84q-36 14 -104 36q-84 27 -119.5 42t-57.5 37q-22 25 -34.5 58.5t-12.5 68.5q0 62 34.5 109.5t97.5 74.5q63 26 142 26q141 0 241 -70l-5 -136q-112 87 -237 87
q-67 0 -106.5 -24.5t-41.5 -66.5q-1 -48 79 -78q28 -11 92 -29q50 -14 82 -25.5t55 -24.5q56 -31 83 -73t27 -100q0 -73 -40 -126t-106.5 -80.5t-145.5 -27.5q-82 0 -159 23.5t-122 63.5z" />
    <glyph glyph-name="T" unicode="T" horiz-adv-x="630" 
d="M374 607v-633h-124v633h-241v117h609v-117h-244z" />
    <glyph glyph-name="U" unicode="U" horiz-adv-x="748" 
d="M146 51q-45 45 -65.5 104t-20.5 143v427h124v-428q0 -215 187 -215q96 0 141.5 52.5t45.5 162.5v428h124v-427q0 -82 -21 -141.5t-66 -105.5q-46 -46 -99.5 -67t-124.5 -21q-137 0 -225 88z" />
    <glyph glyph-name="V" unicode="V" horiz-adv-x="754" 
d="M762 725l-335 -754h-101l-336 754h136l249 -565l252 565h135z" />
    <glyph glyph-name="W" unicode="W" horiz-adv-x="1053" 
d="M527 482l-157 -511h-101l-271 754h135l185 -527l155 520h98l177 -520l163 527h133l-242 -754h-101z" />
    <glyph glyph-name="X" unicode="X" horiz-adv-x="708" 
d="M354 251l-226 -276h-151l302 376l-262 374h148l190 -272l191 272h146l-262 -373l302 -377h-156z" />
    <glyph glyph-name="Y" unicode="Y" horiz-adv-x="729" 
d="M437 285v-310h-124v308l-297 445h146l214 -322l202 325h143z" />
    <glyph glyph-name="Z" unicode="Z" horiz-adv-x="642" 
d="M608 92l-2 -117h-594l2 87l423 546h-379l2 117h554l-2 -86l-420 -547h416z" />
    <glyph glyph-name="backslash" unicode="\" horiz-adv-x="510" 
d="M110 817l426 -982h-130l-426 982h130z" />
    <glyph glyph-name="asciicircum" unicode="^" horiz-adv-x="517" 
d="M259 584l-120 -233h-126l196 381h99l196 -381h-125z" />
    <glyph glyph-name="underscore" unicode="_" horiz-adv-x="620" 
d="M637 -28v-106h-654v106h654z" />
    <glyph glyph-name="grave" unicode="`" horiz-adv-x="524" 
d="M269 729l118 -158l-89 -71l-185 237z" />
    <glyph glyph-name="a" unicode="a" horiz-adv-x="594" 
d="M34.5 227q15.5 32 50.5 58q65 48 157 48q49 0 84.5 -6.5t64.5 -20.5v3q0 44 -10.5 64.5t-36.5 28.5q-27 9 -87 9q-62 0 -103.5 -21.5t-79.5 -73.5v147q36 33 83 48t115 15q124 0 182.5 -51t58.5 -159l1 -161v-182h-122v31q-29 -22 -68 -31.5t-96 -9.5q-81 0 -146 47v0
q-63 51 -63 138q0 47 15.5 79zM169 97.5q28 -19.5 79 -19.5q101 0 143 63v48q-25 19 -55 27t-77 8q-62 0 -90 -17t-28 -55q0 -35 28 -54.5z" />
    <glyph glyph-name="b" unicode="b" horiz-adv-x="636" 
d="M182 725v-255q68 53 162 53q77 0 138 -35t96 -99q34 -64 34 -145q0 -83 -33 -146.5t-94 -97.5q-58 -34 -141 -34q-94 0 -162 53v-44h-122v750h122zM182 171q20 -40 60 -65t85 -25q77 0 119 42.5t42 120.5q0 74 -44 119t-117 45q-46 0 -86 -24.5t-59 -64.5v-148z" />
    <glyph glyph-name="c" unicode="c" horiz-adv-x="524" 
d="M99.5 36.5q-74.5 73.5 -74.5 205.5q0 85 34 148t98 97q65 33 151 33q101 0 171 -46v-129q-73 60 -161 60q-85 0 -127 -40.5t-42 -123.5t41.5 -123t127.5 -40q97 0 170 68v-131q-76 -52 -181 -52q-133 0 -207.5 73.5z" />
    <glyph glyph-name="d" unicode="d" horiz-adv-x="637" 
d="M582 -25h-122v44q-68 -53 -162 -53q-81 0 -142 34t-93 98q-33 60 -33 146q0 81 34 145t95 99q62 35 139 35q94 0 162 -53v255h122v-750zM460 319q-19 40 -59 64.5t-86 24.5q-73 0 -117 -45t-44 -119q0 -78 42 -120.5t119 -42.5q45 0 85 25t60 65v148z" />
    <glyph glyph-name="e" unicode="e" horiz-adv-x="571" 
d="M60 383.5q35 64.5 97 100.5q61 36 138 36q76 0 132.5 -33.5t87.5 -97.5q31 -61 31 -145v-45h-394q11 -55 53.5 -80t124.5 -25q52 0 180 17v-113q-96 -24 -177 -24q-95 0 -164.5 32t-106.5 93q-37 59 -37 142q0 78 35 142.5zM419 308q-11 46 -44.5 71.5t-82.5 25.5
q-50 0 -87 -26.5t-50 -70.5h264z" />
    <glyph glyph-name="f" unicode="f" horiz-adv-x="391" 
d="M98 -25l-4 410h-92v113h92v60q0 77 42 125t112 51q84 3 133 -22l5 -123q-55 31 -111 31q-59 0 -59 -72v-50h122v-113h-122l4 -410h-122z" />
    <glyph glyph-name="g" unicode="g" horiz-adv-x="636" 
d="M455 21q-65 -50 -162 -50q-131 0 -199.5 70t-68.5 204q0 130 70.5 202.5t197.5 72.5q104 0 162 -38v26h122v-477q0 -72 -23 -120t-75 -84q-80 -56 -264 -56q-28 0 -91 3q-5 1 -27 1l-19 19v109q78 -23 162 -23q105 0 160 38.5t55 112.5v-10zM455 334q-35 71 -145 71
q-82 0 -121.5 -39.5t-39.5 -120.5q0 -85 37.5 -122t123.5 -37q48 0 88 23.5t57 62.5v162z" />
    <glyph glyph-name="h" unicode="h" horiz-adv-x="610" 
d="M60 -25v750h122v-250q56 42 168 42q106 0 157.5 -55.5t51.5 -170.5v-316h-122v300q0 101 -50 118q-23 6 -62 6q-50 0 -89.5 -22.5t-53.5 -58.5v-343h-122z" />
    <glyph glyph-name="i" unicode="i" horiz-adv-x="266" 
d="M81 468q0 12 9 21t21 9h42q12 0 21 -9t9 -21v-483h-102v483zM133 724q32 0 54 -22t22 -53t-22.5 -53.5t-54.5 -22.5q-30 0 -52.5 22.5t-22.5 53.5q0 29 21 53q22 22 55 22z" />
    <glyph glyph-name="j" unicode="j" horiz-adv-x="266" 
d="M-86 -194l4 128q27 -24 50 -35t47 -11q30 0 44.5 16.5t14.5 52.5l-3 511q0 16 12 28t28 12h42q16 0 28 -12t12 -28l2 -525q0 -80 -43.5 -125.5t-119.5 -45.5q-78 0 -118 34zM133 714q28 0 47 -19t19 -46t-19.5 -46.5t-47.5 -19.5q-26 0 -45.5 19.5t-19.5 46.5q0 25 18 46
q19 19 48 19z" />
    <glyph glyph-name="k" unicode="k" horiz-adv-x="541" 
d="M60 -25v750h122v-411l195 194h169l-276 -271l316 -262h-182l-222 180v-180h-122z" />
    <glyph glyph-name="l" unicode="l" horiz-adv-x="292" 
d="M307 -23q-30 -15 -83 -15q-78 0 -122.5 45.5t-44.5 125.5l2 555q0 16 12 28t28 12h42q16 0 28 -12t12 -28l-3 -541q0 -36 15 -52.5t49 -16.5q42 0 65 32v-133z" />
    <glyph glyph-name="m" unicode="m" horiz-adv-x="919" 
d="M57 504h122v-31q55 43 149 43q63 0 101 -17t60 -55q34 34 81.5 53t98.5 19q103 0 149.5 -52t46.5 -167v-326h-122v310q0 53 -7 75q-8 24 -26 32h1q-19 10 -63 10q-61 0 -93.5 -34.5t-32.5 -98.5v-294h-122v310q0 54 -6 75q-6 20 -23 31h-1q-20 11 -65 11q-20 0 -62 -17.5
t-64 -33.5v-376h-122v533z" />
    <glyph glyph-name="n" unicode="n" horiz-adv-x="610" 
d="M58 -28v533h122v-38q64 50 168 50q102 0 155.5 -58t53.5 -168v-319h-122v303q0 97 -54 116q-27 8 -58 8q-23 0 -71 -19t-71 -37v-371h-123z" />
    <glyph glyph-name="o" unicode="o" horiz-adv-x="621" 
d="M458.5 484.5q65.5 -35.5 102.5 -99.5q36 -61 36 -144q0 -80 -36.5 -144t-101.5 -99t-148 -35t-148.5 35t-101.5 99q-36 62 -36 144q0 80 36.5 144t102.5 100q64 35 147 35q82 0 147.5 -35.5zM429 360.5q-44 44.5 -118 44.5t-118 -44.5t-44 -119.5t44 -119t118 -44t118 44
t44 119t-44 119.5z" />
    <glyph glyph-name="p" unicode="p" horiz-adv-x="636" 
d="M57 -229v736h122v-40q59 45 162 45q80 0 141.5 -34t93.5 -97q33 -63 33 -147t-32.5 -146t-92.5 -95q-61 -34 -143 -34q-88 0 -162 57v-245h-122zM179 164q23 -39 64.5 -64.5t80.5 -25.5q78 0 119.5 41.5t41.5 118.5q0 78 -42 120.5t-119 42.5q-52 0 -89.5 -22t-55.5 -63
v-148z" />
    <glyph glyph-name="q" unicode="q" horiz-adv-x="637" 
d="M457 16q-74 -57 -162 -57q-82 0 -142.5 33.5t-92.5 95.5q-33 62 -33 146q0 83 33 146.5t94 97.5q58 34 141 34q104 0 162 -45v40h122v-736h-122v245zM457 312q-18 41 -55.5 63t-89.5 22q-77 0 -119 -42.5t-42 -120.5q0 -77 41.5 -118.5t119.5 -41.5q39 0 80.5 25.5
t64.5 64.5v148z" />
    <glyph glyph-name="r" unicode="r" horiz-adv-x="369" 
d="M56 513h122v-45q54 48 132 48q22 0 65 -8l-15 -119q-7 1 -29 1q-63 0 -100.5 -22t-52.5 -66v-327h-122v538z" />
    <glyph glyph-name="s" unicode="s" horiz-adv-x="509" 
d="M70 2l-37 15l-9 14v121l45 -22q59 -30 96 -41t82 -11q60 0 84 12q24 11 24 40q0 13 -5.5 21t-17.5 15l1 -1q-29 15 -95 29q-73 16 -109.5 32t-62.5 45q-31 32 -31 90q0 159 219 159q48 0 88 -10.5t113 -40.5v-125l-50 20q-53 23 -85.5 32t-62.5 9q-58 0 -78 -10
q-21 -10 -21 -36q0 -30 58 -43l70 -18q83 -23 116.5 -38.5t53.5 -43.5q23 -35 23 -87q0 -76 -63 -121t-167 -45q-84 0 -179 39z" />
    <glyph glyph-name="t" unicode="t" horiz-adv-x="430" 
d="M114 394h-114l-1 113h114l-3 149l122 1l3 -149l158 -1l1 -113l-158 1l-4 -241q-1 -33 10.5 -48.5t36.5 -15.5q46 0 120 37l15 -113q-30 -20 -64.5 -31.5t-70.5 -11.5q-74 0 -120 42t-46 110z" />
    <glyph glyph-name="u" unicode="u" horiz-adv-x="611" 
d="M555 507v-533h-122v38q-64 -50 -168 -50q-102 0 -155.5 58t-53.5 168v319h122v-303q0 -96 54 -116q27 -8 58 -8q23 0 71 19t71 37v371h123z" />
    <glyph glyph-name="v" unicode="v" horiz-adv-x="613" 
d="M600 505l-245 -534l-97 1l-254 539h137l164 -357l162 351h133z" />
    <glyph glyph-name="w" unicode="w" horiz-adv-x="819" 
d="M409 299l-113 -327h-98l-200 536h127l123 -327l112 329h97l114 -330l123 328h126l-200 -536h-98z" />
    <glyph glyph-name="x" unicode="x" horiz-adv-x="554" 
d="M279 144l-141 -169h-148l214 261l-196 272h147l125 -175l136 175h146l-208 -270l226 -263h-152z" />
    <glyph glyph-name="y" unicode="y" horiz-adv-x="585" 
d="M32 -100q48 -15 79 -15q44 0 74.5 28.5t56.5 94.5l-230 500h135l157 -352l147 352h133l-254 -582q-32 -73 -91 -115t-131 -42q-38 0 -76 12v119z" />
    <glyph glyph-name="z" unicode="z" horiz-adv-x="504" 
d="M489 88l-5 -113h-486l5 83l297 337h-278l5 113h462l-5 -85l-296 -335h301z" />
    <glyph glyph-name="braceleft" unicode="{" horiz-adv-x="363" 
d="M270 -231q-62 0 -97 19t-51 62q-15 40 -15 114q0 54 6 124q1 2 1 18q0 14 -3 27.5t-8 32.5q-5 17 -19 23.5t-48 8.5v104q34 2 48 8.5t19 21.5q5 16 8 30.5t3 28.5q0 16 -1 18q-6 72 -6 127q0 76 16 118t53 61q32 16 94 16h82v-111h-66q-28 0 -39 -5t-16 -19
q-7 -21 -7 -58q0 -46 9 -141q1 -5 1 -27q0 -79 -47 -120q47 -41 47 -120q0 -22 -1 -27q-9 -96 -9 -143q0 -34 5 -52q5 -17 16.5 -22.5t40.5 -5.5h66v-111h-82z" />
    <glyph glyph-name="bar" unicode="|" horiz-adv-x="306" 
d="M209 785v-921h-112v921h112z" />
    <glyph glyph-name="braceright" unicode="}" horiz-adv-x="363" 
d="M16 -231v111h66q29 0 40.5 5t15.5 19v0q6 15 6 57q0 48 -9 142q-1 5 -1 27q0 79 47 120q-47 41 -47 120q0 22 1 27q9 95 9 142q0 42 -6 57v0q-4 14 -15.5 19t-40.5 5h-66v111h82q63 0 97.5 -18.5t50.5 -61.5q15 -45 15 -119q0 -54 -6 -123q-1 -2 -1 -18q0 -15 2 -26
t9 -32q5 -16 19.5 -22.5t47.5 -8.5v-104q-34 -2 -48 -8.5t-19 -23.5q-5 -19 -8 -32.5t-3 -27.5q0 -16 1 -18q5 -92 5 -117q0 -78 -16 -122t-51 -62q-34 -18 -95 -18h-82z" />
    </font>
</defs>
</svg>
