<svg xmlns="http://www.w3.org/2000/svg" width="155.125" height="155.125" viewBox="0 0 155.125 155.125">
    <path d="M280.952 103.945l7.879 7.877a3.131 3.131 0 0 0 4.424 0l7.879-7.877a3.131 3.131 0 0 0-2.214-5.345h-5.648a54.045 54.045 0 0 0-51.851-51.877v4.548a49.5 49.5 0 0 1 47.3 47.328h-5.559a3.131 3.131 0 0 0-2.21 5.346zm14.549-.8l-4.458 4.459-4.458-4.459zm0 0" transform="translate(-170.425 -28.449)"/>
    <path d="M149.943 93.085h-87.9V63.358a2.272 2.272 0 1 0-4.545 0v29.727H44.2a5.187 5.187 0 0 0-5.181 5.181v13.3H5.181a.637.637 0 0 1-.637-.636V5.181a.638.638 0 0 1 .637-.637h51.677a.638.638 0 0 1 .637.637v47.573a2.272 2.272 0 1 0 4.545 0V5.181A5.187 5.187 0 0 0 56.858 0H5.181A5.187 5.187 0 0 0 0 5.181V110.93a5.187 5.187 0 0 0 5.181 5.181h33.833v33.832a5.187 5.187 0 0 0 5.181 5.181h47.021a2.272 2.272 0 1 0 0-4.545H44.2a.637.637 0 0 1-.637-.637V116.11h13.3a5.187 5.187 0 0 0 5.181-5.181V97.63h87.9a.638.638 0 0 1 .637.637v51.677a.638.638 0 0 1-.637.637h-48.123a2.272 2.272 0 1 0 0 4.545h48.123a5.187 5.187 0 0 0 5.181-5.181V98.267a5.187 5.187 0 0 0-5.182-5.182zm-92.448 17.844a.638.638 0 0 1-.637.637h-13.3v-13.3a.638.638 0 0 1 .637-.637h13.3zm0 0"/>
</svg>
