<?xml version="1.0" standalone="no"?>
<!DOCTYPE svg PUBLIC "-//W3C//DTD SVG 1.1//EN" "http://www.w3.org/Graphics/SVG/1.1/DTD/svg11.dtd" >
<svg xmlns="http://www.w3.org/2000/svg" xmlns:xlink="http://www.w3.org/1999/xlink" version="1.1">
<metadata>
Created by FontForge 20170731 at Fri May 18 10:33:32 2018
 By Aleksey,,,
Copyright (c) 2018 Unbranded Studio. All rights reserved.
</metadata>
<defs>
<font id="Grover-Semi-Bold" horiz-adv-x="619" >
  <font-face 
    font-family="Grover Semi-Bold"
    font-weight="400"
    font-stretch="normal"
    units-per-em="1000"
    panose-1="0 0 7 0 0 0 0 0 0 0"
    ascent="776"
    descent="-224"
    x-height="492"
    cap-height="710"
    bbox="-71 -222 1023 802"
    underline-thickness="50"
    underline-position="-150"
    unicode-range="U+0020-007D"
  />
<missing-glyph horiz-adv-x="711" 
 />
    <glyph glyph-name=".notdef" horiz-adv-x="711" 
 />
    <glyph glyph-name=".null" horiz-adv-x="0" 
 />
    <glyph glyph-name="nonmarkingreturn" horiz-adv-x="333" 
 />
    <glyph glyph-name="space" unicode=" " horiz-adv-x="264" 
 />
    <glyph glyph-name="exclam" unicode="!" horiz-adv-x="285" 
d="M125 205q-10 0 -17.5 7.5t-7.5 17.5l-8 480l113 3l-18 -483q0 -10 -7.5 -17.5t-17.5 -7.5h-37zM99 91q18 17 44 17t44 -17t18 -45t-18 -45t-44 -17t-44 17t-18 45t18 45z" />
    <glyph glyph-name="quotedbl" unicode="&#x22;" horiz-adv-x="359" 
d="M50 685q0 10 7.5 17.5t17.5 7.5h34q10 0 17.5 -7.5t7.5 -17.5v-184l-84 -40v224zM220 685q0 10 7.5 17.5t17.5 7.5h34q10 0 17.5 -7.5t7.5 -17.5v-184l-84 -40v224z" />
    <glyph glyph-name="numbersign" unicode="#" horiz-adv-x="728" 
d="M229 -10h-81l23 189h-151l19 81h146l20 179h-144l19 81h139l24 190h81l-23 -190h175l23 190h81l-23 -190h151l-19 -81h-146l-20 -179h144l-19 -81h-140l-23 -189h-81l23 189h-175zM286 439l-19 -179h175l19 179h-175z" />
    <glyph glyph-name="dollar" unicode="$" horiz-adv-x="627" 
d="M254 -102v82q-61 2 -119 22t-102 55v111q49 -48 118 -74.5t138 -26.5q80 0 132.5 33t54.5 90q1 3 1 13q0 47 -77 77q-37 14 -92 29q-90 27 -136.5 47.5t-77.5 51.5q-22 24 -34.5 55t-12.5 66q0 77 55.5 127t151.5 61v67h94v-67q102 -11 179 -59v-101q-48 35 -112 54.5
t-123 19.5q-69 0 -110 -27.5t-40 -77.5q-1 -3 -1 -12q0 -49 78 -77q31 -13 91 -28q87 -24 133 -43.5t77 -50.5q26 -23 39.5 -49.5t13.5 -60.5q0 -13 -1 -16q-5 -51 -21.5 -86t-46.5 -60q-60 -51 -156 -62v-84z" />
    <glyph glyph-name="percent" unicode="%" horiz-adv-x="826" 
d="M264 -10h-86l385 720h86zM304.5 698.5q41.5 -23.5 65.5 -65.5t24 -93q0 -48 -23 -88.5t-63 -63.5q-41 -23 -90 -23q-50 0 -91.5 24t-64.5 66q-24 41 -24 93q0 48 22.5 88t62.5 63q41 23 89 23q51 0 92.5 -23.5zM286.5 618.5q-27.5 28.5 -69.5 28.5q-46 0 -73 -31t-27 -75
q0 -43 26 -72t70 -29t72.5 30t28.5 76q0 44 -27.5 72.5zM704 317.5q40 -22.5 63 -62.5q22 -40 22 -89q0 -51 -24 -93t-66 -66t-93 -24q-50 0 -89.5 23t-61.5 63t-22 89q0 51 24 92.5t66 65.5q41 24 91 24t90 -22.5zM680 235q-29 30 -72 30q-44 0 -70 -29t-26 -72
q0 -45 27 -75.5t73 -30.5q42 0 69.5 28.5t27.5 73.5t-29 75z" />
    <glyph glyph-name="ampersand" unicode="&#x26;" horiz-adv-x="713" 
d="M636 252q-18 -70 -58 -126l140 -136h-125l-72 70q-94 -82 -222 -82q-75 0 -134.5 27.5t-93.5 79.5t-34 124q0 73 36 124.5t90 78.5q-54 68 -54 129q0 12 4 28q12 45 30.5 73.5t48.5 46.5q51 33 112 33q19 0 38 -3q107 -16 175 -87l-16 -99q-91 103 -191 103
q-43 0 -70 -22t-34 -62l-2 -17q0 -32 26 -62l19 -23q9 -11 34 -36l230 -224q28 55 37 86zM472 121l-246 240q-45 -13 -75 -55t-30 -97q0 -71 50 -113.5t132 -42.5q98 0 169 68z" />
    <glyph glyph-name="quotesingle" unicode="'" horiz-adv-x="174" 
d="M126 496l-84 -40v249h84v-209z" />
    <glyph glyph-name="parenleft" unicode="(" horiz-adv-x="362" 
d="M235 -222q-83 92 -123 210t-40 271q0 270 156 451h104q-170 -194 -170 -452q0 -147 43 -264t133 -216h-103z" />
    <glyph glyph-name="parenright" unicode=")" horiz-adv-x="362" 
d="M14 -222q90 99 133 216t43 264q0 258 -170 452h104q156 -181 156 -451q0 -153 -40 -271t-123 -210h-103z" />
    <glyph glyph-name="asterisk" unicode="*" horiz-adv-x="426" 
d="M253 331h-76l-10 138l-98 -77l-38 65l115 79l-116 46l38 66l124 -62l-18 124h76l10 -138l98 78l38 -66l-116 -78l118 -47l-39 -65l-124 61z" />
    <glyph glyph-name="plus" unicode="+" 
d="M349 74h-85v205h-207v87h207v206h85v-206h207v-87h-207v-205z" />
    <glyph glyph-name="comma" unicode="," horiz-adv-x="236" 
d="M110 -107l-90 -13l67 234l106 -1z" />
    <glyph glyph-name="hyphen" unicode="-" horiz-adv-x="481" 
d="M391 228h-301v87h301v-87z" />
    <glyph glyph-name="period" unicode="." horiz-adv-x="236" 
d="M118 107q29 0 47 -17.5t18 -44.5q0 -25 -18.5 -43.5t-46.5 -18.5q-29 0 -47 18t-18 43q0 24 17 44q19 19 48 19z" />
    <glyph glyph-name="slash" unicode="/" horiz-adv-x="511" 
d="M95 -150h-97l413 952h97z" />
    <glyph glyph-name="zero" unicode="0" horiz-adv-x="708" 
d="M93 548q36 84 103 129t158 45q90 0 157 -45.5t103 -129.5t36 -197q0 -114 -35.5 -198t-102.5 -129t-158 -45q-92 0 -159 44.5t-102 128.5q-36 84 -36 199q0 114 36 198zM532 500q-25 64 -70 99q-46 34 -108 34q-96 0 -149.5 -74.5t-53.5 -208.5q0 -136 53 -209.5
t150 -73.5q101 0 152 76.5t51 206.5q0 86 -25 150z" />
    <glyph glyph-name="one" unicode="1" horiz-adv-x="373" 
d="M276 -10h-93v618l-159 -30v91l176 41h76v-720z" />
    <glyph glyph-name="two" unicode="2" horiz-adv-x="575" 
d="M34 59l239 228l28 26q52 51 71.5 73t30.5 50t11 57q0 65 -51 104q-47 36 -116 36q-119 0 -207 -109l-5 112q89 86 216 86q53 0 100.5 -15t79.5 -42q76 -64 76 -165q0 -91 -60 -158q-22 -26 -80 -82l-20 -19l-170 -164h354v-87h-497v69z" />
    <glyph glyph-name="three" unicode="3" horiz-adv-x="571" 
d="M216 -24q-50 0 -90.5 10.5t-82.5 34.5l-2 102q45 -31 87 -45t92 -14q61 0 107.5 21t72 58t25.5 83q0 70 -46.5 107.5t-130.5 37.5q-76 0 -98 -34v89l211 197h-301v87h436v-69l-205 -192q45 -5 85.5 -21t69.5 -42q39 -33 56 -69.5t17 -90.5q0 -67 -35 -122.5t-96.5 -89
t-138.5 -37.5q-7 -1 -33 -1z" />
    <glyph glyph-name="four" unicode="4" horiz-adv-x="633" 
d="M498 -10h-92l1 196h-376l-1 73l375 454h86l7 -440h112v-87h-111zM406 578l-258 -305h258v305z" />
    <glyph glyph-name="five" unicode="5" horiz-adv-x="597" 
d="M47 42l7 97q91 -70 212 -70q73 0 128 37q63 45 63 116q0 41 -26 75t-71 54q-48 20 -101 20q-81 0 -184 -38l53 377l365 3v-87l-291 -3l-25 -179q39 10 99 10q112 0 189 -65q43 -36 66.5 -85.5t19.5 -96.5q-6 -69 -46 -120.5t-102 -79t-132 -27.5q-135 0 -224 62z" />
    <glyph glyph-name="six" unicode="6" horiz-adv-x="641" 
d="M405 87.5q38 20.5 58.5 56t20.5 79.5q0 74 -48 111q-44 39 -111 39q-60 0 -109 -36.5t-68 -94.5q1 -78 48.5 -126.5t121.5 -48.5q49 0 87 20.5zM546 552q-95 80 -188 80q-57 0 -103.5 -31t-75.5 -88q-30 -61 -34 -136q30 38 83 59.5t118 21.5q94 0 159 -63
q72 -66 72 -170t-69 -173q-69 -73 -183 -73q-62 0 -113 21.5t-87 63.5q-34 41 -51 101t-21 147q-5 116 34.5 210.5t112.5 147.5q70 52 156 52q96 0 185 -66z" />
    <glyph glyph-name="seven" unicode="7" horiz-adv-x="553" 
d="M220 -10h-99l282 633h-371l-6 87h482l4 -67z" />
    <glyph glyph-name="eight" unicode="8" horiz-adv-x="645" 
d="M562.5 314q35.5 -49 35.5 -113q0 -51 -21 -94.5t-59 -71.5q-79 -57 -196 -57q-118 0 -196 57q-38 28 -59 71.5t-21 94.5q0 65 35.5 114.5t94.5 66.5q-95 51 -95 147q0 55 32 99t87 69t122 25t122.5 -24.5t87.5 -69t32 -99.5q0 -96 -96 -147q59 -19 94.5 -68zM180 484.5
q9 -15.5 33 -33.5q44 -32 109 -32q70 0 111 28.5t41 75.5q0 51 -43.5 83.5t-108.5 32.5t-108 -32.5t-43 -83.5q0 -23 9 -38.5zM453 100q24 18 38 46t14 59q0 38 -23.5 68t-65 46.5t-94.5 16.5q-52 0 -93.5 -16.5t-65 -46.5t-23.5 -68q0 -31 13.5 -59t37.5 -46
q53 -39 131 -39q77 0 131 39z" />
    <glyph glyph-name="nine" unicode="9" horiz-adv-x="641" 
d="M225 614.5q-38 -20.5 -58.5 -56t-20.5 -79.5q0 -73 48 -111q43 -39 111 -39q60 0 109 36.5t68 94.5q-1 78 -48.5 126.5t-121.5 48.5q-49 0 -87 -20.5zM84 150q95 -80 188 -80q57 0 103.5 31t75.5 89q30 59 34 135q-30 -38 -83 -59.5t-118 -21.5q-94 0 -159 63
q-72 66 -72 170t69 173q69 73 183 73q62 0 113 -21.5t87 -63.5q34 -41 51 -101t21 -147q5 -116 -34 -210t-112 -147t-157 -53q-96 0 -185 66z" />
    <glyph glyph-name="colon" unicode=":" horiz-adv-x="236" 
d="M95.5 462.5q11.5 4.5 22.5 4.5q24 0 39.5 -15t15.5 -37t-14 -36q-7 -7 -18.5 -11.5t-22.5 -4.5q-24 0 -39.5 15t-15.5 37t14 36q7 7 18.5 11.5zM118 107q29 0 47 -17.5t18 -44.5q0 -25 -18.5 -43.5t-46.5 -18.5q-29 0 -47 18t-18 43q0 24 17 44q19 19 48 19z" />
    <glyph glyph-name="semicolon" unicode=";" horiz-adv-x="242" 
d="M103 -98l-69 -10l61 212l84 -1zM132 467q29 0 47 -17.5t18 -44.5q0 -25 -18.5 -43.5t-46.5 -18.5q-29 0 -47 18t-18 43q0 24 17 44q19 19 48 19z" />
    <glyph glyph-name="less" unicode="&#x3c;" 
d="M529 163v-94l-459 214v80l459 215v-94l-347 -161z" />
    <glyph glyph-name="equal" unicode="=" 
d="M549 386h-479v66h479v-66zM559 188h-499v86h499v-86z" />
    <glyph glyph-name="greater" unicode="&#x3e;" 
d="M529 283l-459 -214v94l347 160l-347 161v94l459 -215v-80z" />
    <glyph glyph-name="question" unicode="?" horiz-adv-x="476" 
d="M163 368q70 12 131 56q28 20 45.5 47t17.5 50q0 51 -35 81.5t-91 30.5q-103 0 -201 -91l3 96q40 36 84 55.5t97 24.5q6 1 27 1q53 0 101.5 -22.5t78.5 -65t30 -100.5q0 -35 -19 -74.5t-49 -66.5q-56 -50 -131 -75l3 -110h-90zM214 107q29 0 47 -17.5t18 -44.5
q0 -25 -18.5 -43.5t-46.5 -18.5q-29 0 -47 18t-18 43q0 24 17 44q19 19 48 19z" />
    <glyph glyph-name="at" unicode="@" horiz-adv-x="962" 
d="M119 489.5q56 97.5 152.5 153.5t210.5 56q116 0 211.5 -53t151 -144.5t55.5 -202.5q0 -68 -22.5 -123t-64 -87t-95.5 -32q-30 0 -48.5 4.5t-31.5 14.5v0q-18 13 -25 24v0q-6 7 -13 23q-30 -28 -74.5 -47t-90.5 -19q-55 0 -97.5 26t-66 71.5t-23.5 100.5q0 66 30.5 122.5
t84 89.5t119.5 33q39 0 71.5 -15t61.5 -46l4 42h90l-29 -282q-1 -4 -1 -16q0 -24 12 -34t41 -10q18 0 32 9t29 30q28 47 28 122q0 132 -94 227q-94 94 -245 94q-145 0 -243 -101q-97 -97 -97 -245q0 -145 96 -246q100 -100 244 -100q120 0 215 68v-90q-95 -56 -215 -56
q-115 0 -211 56t-152 153t-56 215q0 117 56 214.5zM373 175q34 -34 85 -34q35 0 73.5 19.5t58.5 47.5l15 134q-18 36 -48 56t-66 20q-62 0 -107 -45q-44 -47 -44 -110q0 -52 33 -88z" />
    <glyph glyph-name="A" unicode="A" horiz-adv-x="753" 
d="M120 -10h-99l308 724h82l335 -724h-100l-90 193h-359zM371 586l-140 -319h292z" />
    <glyph glyph-name="B" unicode="B" horiz-adv-x="726" 
d="M89 722h313q97 0 154 -48.5t57 -131.5q0 -46 -18.5 -81t-53.5 -55q62 -19 97 -69t35 -121q0 -62 -32 -114t-87 -82t-121 -30h-344v732zM420 77q42 0 77.5 19.5t56.5 53.5q20 35 20 75q0 60 -40 92.5t-114 32.5h-237v-273h237zM390 425q140 0 140 104q0 56 -36.5 86
t-103.5 30h-217v-220h217z" />
    <glyph glyph-name="C" unicode="C" horiz-adv-x="690" 
d="M149.5 72q-91.5 98 -89.5 278q-2 178 89.5 276.5t259.5 98.5q139 0 226 -63l-2 -100q-103 74 -218 74q-129 0 -196 -73t-64 -213q-3 -141 63.5 -214t197.5 -73q140 0 231 90l3 -104q-93 -75 -239 -75q-170 0 -261.5 98z" />
    <glyph glyph-name="D" unicode="D" horiz-adv-x="778" 
d="M89 710h239q185 0 287 -94t102 -266q0 -176 -99.5 -268t-289.5 -92h-239v720zM319 77q156 0 229.5 66.5t73.5 206.5q0 273 -303 273h-136v-546h136z" />
    <glyph glyph-name="E" unicode="E" horiz-adv-x="640" 
d="M604 -10h-515v720h500v-87h-406v-214h257v-87h-257v-245h421v-87z" />
    <glyph glyph-name="F" unicode="F" horiz-adv-x="622" 
d="M183 -10h-94v720h497v-87h-403v-213h257v-87h-257v-333z" />
    <glyph glyph-name="G" unicode="G" horiz-adv-x="780" 
d="M231 23q-83 45 -127 129q-44 83 -44 198q0 117 43.5 200.5t126.5 127.5t199 44q139 0 232 -72v-101q-100 84 -228 84q-136 0 -207 -72.5t-71 -211.5q0 -134 71 -208t201 -74q69 0 112.5 15t76.5 52v247h93v-284q-46 -58 -118 -88.5t-164 -30.5q-113 0 -196 45z" />
    <glyph glyph-name="H" unicode="H" horiz-adv-x="761" 
d="M183 -10h-94v720h94v-300h396v300h94v-720h-94v333h-396v-333z" />
    <glyph glyph-name="I" unicode="I" horiz-adv-x="281" 
d="M188 -10h-94l-3 720h94z" />
    <glyph glyph-name="J" unicode="J" horiz-adv-x="507" 
d="M29 31l1 106q63 -69 168 -69q56 0 84 10.5t42 41.5q16 32 16 104l4 488l94 1l-4 -503q-1 -174 -101 -212q-45 -19 -119 -19q-118 0 -185 52z" />
    <glyph glyph-name="K" unicode="K" horiz-adv-x="661" 
d="M89 710h94v-356l289 356h124l-331 -399l401 -321h-135l-348 275v-275h-94v720z" />
    <glyph glyph-name="L" unicode="L" horiz-adv-x="597" 
d="M577 -8h-485v720h94v-633h391v-87z" />
    <glyph glyph-name="M" unicode="M" horiz-adv-x="848" 
d="M182 -10h-93v720h88l248 -371l248 371h87v-720h-93l3 564l-217 -332h-55l-220 330z" />
    <glyph glyph-name="N" unicode="N" horiz-adv-x="775" 
d="M174 -10h-92l12 720h79l416 -553l14 553h92l-18 -720h-78l-416 555z" />
    <glyph glyph-name="O" unicode="O" horiz-adv-x="845" 
d="M614 676.5q82 -45.5 126 -129.5q44 -85 44 -197q0 -113 -44 -197.5t-125 -129.5q-82 -45 -193 -45t-192.5 45t-125.5 129q-44 85 -44 198q0 114 44 198t126 129q81 45 192 45q110 0 192 -45.5zM618 142q71 75 71 208t-70.5 208t-196.5 75q-125 0 -196 -75t-71 -208
t70.5 -208t196.5 -75q125 0 196 75z" />
    <glyph glyph-name="P" unicode="P" horiz-adv-x="665" 
d="M89 710h294q117 0 177.5 -52t60.5 -152q0 -102 -60.5 -154.5t-177.5 -52.5h-200v-309h-94v720zM378 386q80 0 115 27.5t35 90.5q0 64 -34.5 91.5t-115.5 27.5h-195v-237h195z" />
    <glyph glyph-name="Q" unicode="Q" horiz-adv-x="845" 
d="M111 539.5q41 81.5 120 126.5q79 46 191 46q111 0 191 -46.5t121 -129.5q40 -81 40 -186q0 -120 -51 -208t-148 -127q56 -50 112 -50q46 0 84 23l-3 -72q-45 -20 -93 -20q-34 0 -72 17t-65 41q-22 18 -43 39q-42 -5 -73 -5q-112 0 -192 46t-120 129q-40 81 -40 187
q0 108 41 189.5zM176 198.5q31 -65.5 93 -103.5t153 -38q90 0 152.5 37t94.5 105q30 66 30 151q0 86 -31 151.5t-92 103.5q-64 38 -154 38t-152.5 -37t-93.5 -105q-31 -65 -31 -151t31 -151.5z" />
    <glyph glyph-name="R" unicode="R" horiz-adv-x="736" 
d="M89 710h323q121 0 176 -47.5t55 -152.5q0 -71 -46.5 -124t-124.5 -71l257 -325h-113l-247 315h-186v-315h-94v720zM408 392q68 0 104.5 29.5t36.5 85.5q0 47 -9.5 69.5t-38.5 34.5q-31 12 -93 12h-225v-231h225z" />
    <glyph glyph-name="S" unicode="S" horiz-adv-x="628" 
d="M144.5 -0.5q-72.5 21.5 -116.5 57.5l4 111q42 -45 119 -76q71 -25 141 -25q81 0 131.5 34t51.5 89q1 3 1 11q0 21 -13 40.5t-37 34.5h-1q-8 7 -39 19l-43 14l-50 15q-59 17 -76 24q-31 10 -64 26.5t-52 35.5q-20 23 -31.5 53.5t-11.5 63.5q0 57 32.5 101.5t91.5 69
t135 24.5q132 0 226 -63l-4 -99q-106 73 -223 73q-74 0 -117.5 -28.5t-45.5 -76.5l-1 -8q0 -31 39 -62q8 -6 31 -15l32 -13l43 -11l42 -12l32 -10q37 -12 54 -19t44 -21q35 -19 56.5 -40.5t33.5 -52.5t12 -67q0 -106 -85 -163q-80 -56 -192 -56q-77 0 -149.5 21.5z" />
    <glyph glyph-name="T" unicode="T" horiz-adv-x="630" 
d="M359 -11h-94v633h-241v87h579v-87h-244v-633z" />
    <glyph glyph-name="U" unicode="U" horiz-adv-x="748" 
d="M251.5 -1.5q-52.5 20.5 -94.5 63.5q-43 43 -62.5 99t-19.5 137v412h94v-413q0 -114 51 -172t151 -58q102 0 152 57t50 173v413h94v-412q0 -79 -19.5 -135.5t-63.5 -100.5t-94 -64t-119 -20q-67 0 -119.5 20.5z" />
    <glyph glyph-name="V" unicode="V" horiz-adv-x="754" 
d="M417 -14h-81l-323 724h103l259 -587l262 587h102z" />
    <glyph glyph-name="W" unicode="W" horiz-adv-x="1053" 
d="M359 -14h-79l-261 724h103l197 -561l165 554h76l189 -554l173 561h101l-232 -724h-79l-186 545z" />
    <glyph glyph-name="X" unicode="X" horiz-adv-x="708" 
d="M121 -10h-113l290 360l-252 360h111l198 -283l199 283h109l-252 -359l290 -361h-118l-229 285z" />
    <glyph glyph-name="Y" unicode="Y" horiz-adv-x="664" 
d="M379 -10h-94v298l-284 425h110l222 -335l210 338h108l-272 -427v-299z" />
    <glyph glyph-name="Z" unicode="Z" horiz-adv-x="642" 
d="M591 -10h-564l2 67l439 566h-395l2 87h524l-2 -66l-435 -567h431z" />
    <glyph glyph-name="backslash" unicode="\" horiz-adv-x="510" 
d="M513 -150h-97l-413 952h97z" />
    <glyph glyph-name="asciicircum" unicode="^" horiz-adv-x="517" 
d="M130 366h-92l180 351h81l180 -351h-91l-129 251z" />
    <glyph glyph-name="underscore" unicode="_" horiz-adv-x="620" 
d="M622 -119h-624v76h624v-76z" />
    <glyph glyph-name="grave" unicode="`" horiz-adv-x="524" 
d="M366 574l-66 -53l-155 199l116 -6z" />
    <glyph glyph-name="a" unicode="a" horiz-adv-x="594" 
d="M47.5 219.5q13.5 28.5 46.5 53.5q60 45 148 45q54 0 92.5 -8t71.5 -30v29q0 48 -13 72.5t-44 34.5q-30 10 -92 10q-54 0 -94 -16t-74 -52v98q34 29 77 42t106 13q118 0 172 -47t54 -148l1 -161v-167h-92v49q-31 -34 -73 -46.5t-106 -12.5q-78 0 -137 44q-57 47 -57 126
q0 43 13.5 71.5zM159 87q33 -24 89 -24q113 0 158 74v59q-31 25 -64 34t-83 9q-68 0 -100.5 -21.5t-32.5 -65.5q0 -41 33 -65z" />
    <glyph glyph-name="b" unicode="b" horiz-adv-x="636" 
d="M167 710v-274q68 72 177 72q74 0 131.5 -33t89.5 -93q32 -61 32 -138q0 -80 -31 -139.5t-88 -91.5q-58 -32 -134 -32q-109 0 -177 72v-63h-92v720h92zM167 167q22 -45 66 -73t94 -28q83 0 129.5 46.5t46.5 131.5q0 80 -48.5 129.5t-127.5 49.5q-51 0 -95.5 -28t-64.5 -73
v-155z" />
    <glyph glyph-name="c" unicode="c" horiz-adv-x="524" 
d="M110 47q-70 69 -70 195q0 123 71.5 193t196.5 70q90 0 156 -39v-91q-68 45 -146 45q-91 0 -137.5 -45t-46.5 -134q0 -178 184 -178q88 0 155 51v-91q-72 -45 -166 -45q-127 0 -197 69z" />
    <glyph glyph-name="d" unicode="d" horiz-adv-x="637" 
d="M567 -10h-92v63q-67 -72 -177 -72q-77 0 -134 32t-88 92q-31 58 -31 139q0 78 32 138t90 93q57 33 131 33q110 0 177 -72v274h92v-720zM475 322q-20 45 -64.5 73t-95.5 28q-79 0 -127.5 -49.5t-48.5 -129.5q0 -85 46.5 -131.5t129.5 -46.5q50 0 94 28t66 73v155z" />
    <glyph glyph-name="e" unicode="e" horiz-adv-x="571" 
d="M72 375.5q32 60.5 90.5 95t132.5 34.5q72 0 125 -31.5t82 -91.5t29 -138v-30h-396q8 -72 56.5 -103.5t138.5 -31.5q59 0 165 15v-84q-87 -21 -162 -21q-137 0 -215 66.5t-78 185.5q0 74 32 134.5zM437 293q-7 52 -43 89.5t-102 37.5q-65 0 -106 -37t-50 -90h301z" />
    <glyph glyph-name="f" unicode="f" horiz-adv-x="391" 
d="M113 -10l-4 410h-92v83h92v75q0 71 38 114.5t102 46.5q72 3 117 -17l4 -88q-48 21 -95 21q-35 0 -54.5 -22.5t-19.5 -64.5v-65h122v-83h-122l4 -410h-92z" />
    <glyph glyph-name="g" unicode="g" horiz-adv-x="636" 
d="M470 55q-66 -69 -177 -69q-125 0 -189 65.5t-64 193.5q0 124 66 192t187 68q63 0 106 -13t71 -41v42h92v-462q0 -70 -21 -114t-70 -78q-77 -53 -256 -53q-27 0 -90 3q-7 1 -22 1l-10 10v83q72 -18 147 -18q105 0 167.5 40t62.5 126v24zM470 337q-18 40 -59.5 61.5
t-100.5 21.5q-176 0 -176 -175q0 -91 42 -132.5t134 -41.5q53 0 97 27t63 71v168z" />
    <glyph glyph-name="h" unicode="h" horiz-adv-x="610" 
d="M75 -10v720h92v-270q27 32 71 47t112 15q100 0 147 -51t47 -160v-301h-92v285q0 60 -16.5 92t-44.5 40q-24 7 -66 7q-56 0 -100 -26t-58 -67v-331h-92z" />
    <glyph glyph-name="i" unicode="i" horiz-adv-x="266" 
d="M96 468q0 6 4.5 10.5t10.5 4.5h42q6 0 10.5 -4.5t4.5 -10.5v-468h-72v468zM133 709q26 0 43.5 -17.5t17.5 -42.5t-18 -43t-44 -18q-24 0 -42 18.5t-18 42.5q0 23 17 43q17 17 44 17z" />
    <glyph glyph-name="j" unicode="j" horiz-adv-x="266" 
d="M-71 -187l3 90q40 -30 83 -30q74 0 74 84l-3 511q0 10 7.5 17.5t17.5 7.5h42q10 0 17.5 -7.5t7.5 -17.5l2 -525q0 -74 -39 -115t-109 -41q-65 0 -103 26zM133 699q22 0 36.5 -14.5t14.5 -35.5t-15 -36t-37 -15q-21 0 -35.5 15t-14.5 36q0 19 14 36q14 14 37 14z" />
    <glyph glyph-name="k" unicode="k" horiz-adv-x="541" 
d="M75 710h92v-432l216 215h126l-261 -257l296 -246h-135l-242 197v-197h-92v720z" />
    <glyph glyph-name="l" unicode="l" horiz-adv-x="292" 
d="M292 -13q-26 -10 -68 -10q-72 0 -112 41t-40 115l2 555q0 10 7.5 17.5t17.5 7.5h42q10 0 17.5 -7.5t7.5 -17.5l-3 -541q0 -84 79 -84q28 0 50 13v-89z" />
    <glyph glyph-name="m" unicode="m" horiz-adv-x="919" 
d="M72 489h92v-51q28 33 67.5 48t96.5 15q67 0 102.5 -19t55.5 -65q31 40 79 62t104 22q97 0 139 -47.5t42 -156.5v-311h-92v295q0 55 -9 82.5t-32 38.5q-25 11 -69 11q-67 0 -104 -39t-37 -109v-279h-92v295q0 56 -7.5 81.5t-29.5 37.5q-22 13 -73 13q-22 0 -71.5 -20
t-69.5 -39v-368h-92v503z" />
    <glyph glyph-name="n" unicode="n" horiz-adv-x="610" 
d="M73 -13v503h92v-57q34 36 78 52.5t105 16.5q96 0 145 -53.5t49 -157.5v-304h-92v288q0 57 -17.5 88.5t-46.5 41.5q-27 9 -63 9q-26 0 -80.5 -21.5t-76.5 -42.5v-363h-93z" />
    <glyph glyph-name="o" unicode="o" horiz-adv-x="621" 
d="M451 471.5q62 -33.5 97 -93.5q34 -59 34 -137q0 -77 -34 -137t-96 -93q-61 -33 -141 -33t-141.5 33t-95.5 93q-34 59 -34 137q0 77 34.5 137t96.5 94q61 33 140 33q78 0 140 -33.5zM439.5 371.5q-48.5 48.5 -128.5 48.5t-128.5 -48.5t-48.5 -130.5q0 -81 48.5 -129.5
t128.5 -48.5t128.5 48.5t48.5 129.5q0 82 -48.5 130.5z" />
    <glyph glyph-name="p" unicode="p" horiz-adv-x="636" 
d="M72 -214v706h92v-60q30 34 72 49.5t105 15.5q77 0 134 -32t88 -91t31 -140q0 -121 -68 -190.5t-185 -69.5q-98 0 -177 75v-263h-92zM164 160q23 -43 69 -72t91 -29q84 0 130 45.5t46 129.5q0 85 -46.5 131.5t-129.5 46.5q-57 0 -99 -25.5t-61 -71.5v-155z" />
    <glyph glyph-name="q" unicode="q" horiz-adv-x="637" 
d="M472 49q-79 -75 -177 -75q-117 0 -185 69.5t-68 190.5q0 80 31 139.5t88 91.5q58 32 134 32q63 0 105 -15.5t72 -49.5v60h92v-706h-92v263zM472 315q-19 46 -61 71.5t-99 25.5q-83 0 -129.5 -46.5t-46.5 -131.5q0 -84 46 -129.5t130 -45.5q45 0 91 29t69 72v155z" />
    <glyph glyph-name="r" unicode="r" horiz-adv-x="369" 
d="M71 498h92v-69q25 35 63 53.5t84 18.5q16 0 48 -5l-11 -91q-76 3 -121.5 -22t-62.5 -79v-314h-92v508z" />
    <glyph glyph-name="s" unicode="s" horiz-adv-x="509" 
d="M76 16l-37 15v97l23 -11q58 -30 97 -42t88 -12q66 0 94.5 15.5t28.5 51.5q0 33 -31 49q-32 15 -98 30q-70 16 -104.5 30t-59.5 42q-27 29 -27 80q0 73 50.5 108.5t153.5 35.5q47 0 86 -10.5t100 -35.5v-93l-29 12q-52 22 -86 32t-68 10q-63 0 -88.5 -14t-25.5 -47
q0 -21 16.5 -35t52.5 -23l70 -18q78 -20 110.5 -34.5t51.5 -40.5q20 -29 20 -79q0 -69 -58.5 -110t-156.5 -41q-83 0 -173 38z" />
    <glyph glyph-name="t" unicode="t" horiz-adv-x="430" 
d="M129 409h-114l-1 83h114l-3 149l92 1l3 -149l158 -1l1 -83l-158 1l-4 -256q-1 -79 62 -79q41 0 108 30l11 -84q-26 -17 -57 -26t-62 -9q-66 0 -108.5 36t-42.5 101z" />
    <glyph glyph-name="u" unicode="u" horiz-adv-x="611" 
d="M540 492v-503h-92v57q-34 -36 -78 -52.5t-105 -16.5q-96 0 -145 53.5t-49 157.5v304h92v-288q0 -57 17.5 -88.5t46.5 -41.5q27 -9 63 -9q26 0 80.5 21.5t76.5 42.5v363h93z" />
    <glyph glyph-name="v" unicode="v" horiz-adv-x="567" 
d="M322 -14l-77 1l-240 509h103l174 -378l172 372h100z" />
    <glyph glyph-name="w" unicode="w" horiz-adv-x="819" 
d="M285 -13h-77l-188 506h95l134 -356l122 358h75l125 -359l133 357h94l-188 -506h-77l-124 358z" />
    <glyph glyph-name="x" unicode="x" horiz-adv-x="554" 
d="M131 -10h-109l201 245l-186 258h110l133 -185l143 185h109l-197 -256l212 -247h-112l-156 177z" />
    <glyph glyph-name="y" unicode="y" horiz-adv-x="555" 
d="M25 -120q39 -10 64 -10q50 0 84.5 33t62.5 105l-223 485h102l168 -375l156 375h100l-245 -561q-30 -69 -85.5 -108.5t-122.5 -39.5q-31 0 -61 8v88z" />
    <glyph glyph-name="z" unicode="z" horiz-adv-x="504" 
d="M470 -10h-456l4 62l315 358h-295l3 83h432l-4 -64l-314 -356h318z" />
    <glyph glyph-name="braceleft" unicode="{" horiz-adv-x="363" 
d="M270 -216q-58 0 -89 16t-45 55t-14 109q0 52 6 122q1 5 1 20q0 16 -3 31t-9 33q-6 20 -21.5 30t-44.5 12v76q29 2 44.5 11.5t21.5 28.5q6 18 9 32.5t3 30.5q0 15 -1 20q-6 72 -6 125q0 72 14 110.5t46 54.5q31 15 88 15h67v-81h-51q-32 0 -47 -7t-22 -27q-8 -22 -8 -63
q0 -48 9 -143q1 -6 1 -25q0 -85 -57 -120q57 -34 57 -120q0 -19 -1 -25q-9 -96 -9 -145q0 -41 7 -61t23 -27q15 -7 47 -7h51v-81h-67z" />
    <glyph glyph-name="bar" unicode="|" horiz-adv-x="306" 
d="M194 -121h-82v891h82v-891z" />
    <glyph glyph-name="braceright" unicode="}" horiz-adv-x="363" 
d="M31 -216v81h51q32 0 47.5 7t22.5 27q7 18 7 62q0 50 -9 144q-1 6 -1 25q0 86 57 120q-57 35 -57 120q0 19 1 25q9 95 9 144q0 44 -7 62q-7 20 -22.5 27t-47.5 7h-51v81h67q58 0 89 -16t45 -54q14 -42 14 -114q0 -50 -6 -121q-1 -5 -1 -20q0 -16 3 -30.5t9 -32.5
q6 -19 21.5 -28.5t44.5 -11.5v-76q-29 -2 -44.5 -12t-21.5 -30q-6 -18 -9 -33t-3 -31q0 -15 1 -20q5 -82 5 -115q0 -75 -14 -115t-45 -56t-88 -16h-67z" />
    </font>
</defs>
</svg>
